<svg data-v-d3f97b9e="" xmlns="http://www.w3.org/2000/svg" viewBox="0 0 331 90"><!----><!----><!----><g data-v-d3f97b9e="" id="b04d3de8-5200-4a9a-bc27-2cee727f13d5" fill="#000000" transform="matrix(4.347826026863623,0,0,4.347826026863623,90.16596850382875,1.0000012611997278)"><path d="M7.01 11.13C7.01 9.62 6.22 8.86 5.33 8.60C6.13 8.34 6.68 7.63 6.68 6.34L6.68 6.09C6.66 3.93 5.43 3.51 3.60 3.51L1.13 3.51L1.13 14.18L3.84 14.18C6.01 14.18 7.01 13.45 7.01 11.45ZM6.29 11.42C6.29 12.89 5.71 13.54 3.95 13.54L1.86 13.54L1.86 9.00L3.68 9.00C5.39 9.00 6.29 9.48 6.29 11.24ZM1.86 4.16L3.56 4.16C5.03 4.16 5.96 4.38 5.96 6.20L5.96 6.33C5.96 7.71 5.42 8.36 3.82 8.36L1.86 8.36ZM9.49 5.98L8.81 5.98L8.81 14.18L9.49 14.18ZM9.51 3.22L8.79 3.22L8.79 4.14L9.51 4.14ZM14.04 16.42C12.81 16.42 12.38 15.89 12.32 15.01L11.66 15.01C11.73 16.39 12.45 17.02 14.03 17.02C15.83 17.02 16.70 16.27 16.70 13.76L16.70 5.98L16.06 5.98L16.02 6.78C15.65 6.19 14.91 5.81 14 5.81C12.59 5.81 11.47 6.59 11.47 8.88L11.47 11.13C11.47 13.13 12.22 14.24 13.90 14.24C14.85 14.24 15.58 13.93 16.00 13.27L16.00 13.83C16.00 15.71 15.57 16.42 14.04 16.42ZM12.17 8.93C12.17 7.07 12.94 6.44 14.10 6.44C15.16 6.44 16.00 6.99 16.00 8.60L16.00 11.68C16.00 12.94 15.20 13.62 14.06 13.62C12.73 13.62 12.17 12.78 12.17 11.16ZM22.46 14.18L23.18 14.18L23.18 9.41L24.88 9.41C25.09 9.41 25.34 9.41 25.54 9.38L27.23 14.18L28.04 14.18L26.24 9.24C27.27 8.99 27.76 8.27 27.76 6.71L27.76 6.20C27.76 4.03 26.60 3.51 24.86 3.51L22.46 3.51ZM24.84 4.16C26.24 4.16 27.03 4.45 27.03 6.29L27.03 6.66C27.03 8.27 26.60 8.76 24.99 8.76L23.18 8.76L23.18 4.16ZM33.77 12.05C33.74 13.17 33.29 13.73 31.99 13.73C30.53 13.73 30.06 12.99 30.06 11.31L30.06 10.18L34.50 10.18L34.50 8.81C34.50 6.75 33.74 5.81 31.96 5.81C30.23 5.81 29.37 6.68 29.37 8.92L29.37 11.30C29.37 13.52 30.18 14.35 32.00 14.35C33.67 14.35 34.41 13.59 34.43 12.05ZM31.96 6.43C33.43 6.43 33.82 7.20 33.82 8.81L33.82 9.59L30.06 9.59L30.06 8.88C30.06 7.10 30.53 6.43 31.96 6.43ZM41.36 14.18L41.36 8.43C41.36 6.55 40.49 5.81 38.92 5.81C37.17 5.81 36.41 6.65 36.41 8.37L37.04 8.37C37.04 6.87 37.74 6.43 38.91 6.43C40.15 6.43 40.68 7.03 40.68 8.43L40.68 9.80C40.25 9.73 39.61 9.67 39.20 9.67C37.07 9.67 36.15 10.49 36.15 12.07C36.15 13.64 37.07 14.35 38.43 14.35C39.44 14.35 40.26 13.93 40.70 13.16L40.73 14.18ZM40.68 11.56C40.68 13.03 39.70 13.75 38.56 13.75C37.41 13.75 36.86 13.15 36.86 12.04C36.86 10.86 37.46 10.26 39.16 10.26C39.55 10.26 40.24 10.32 40.68 10.39ZM47.66 11.76L47.66 11.84C47.66 12.96 47.24 13.73 45.78 13.73C44.28 13.73 43.88 12.94 43.88 11.23L43.88 8.88C43.88 7.11 44.35 6.44 45.81 6.44C47.22 6.44 47.61 7.14 47.61 8.25L47.61 8.33L48.29 8.33L48.29 8.25C48.29 6.66 47.61 5.81 45.82 5.81C44.06 5.81 43.18 6.59 43.18 8.88L43.18 11.26C43.18 13.54 43.99 14.35 45.77 14.35C47.60 14.35 48.31 13.48 48.31 11.84L48.31 11.76ZM50.16 3.37L50.16 14.18L50.85 14.18L50.85 8.37C50.85 7.11 51.66 6.44 52.79 6.44C54.26 6.44 54.68 7.17 54.68 8.79L54.68 14.18L55.37 14.18L55.37 8.75C55.37 6.89 54.85 5.81 52.96 5.81C51.97 5.81 51.24 6.19 50.85 6.78L50.85 3.37Z"></path></g><linearGradient data-v-d3f97b9e="" gradientTransform="rotate(25)" id="621abe9f-695a-4447-9a7a-e543e159fb5e" x1="0%" y1="0%" x2="100%" y2="0%"><stop data-v-d3f97b9e="" offset="0%" style="stop-color: rgb(208, 160, 112); stop-opacity: 1;"></stop><stop data-v-d3f97b9e="" offset="100%" style="stop-color: rgb(107, 227, 113); stop-opacity: 1;"></stop></linearGradient><g data-v-d3f97b9e="" id="13d3f86f-9cee-48ea-ad11-266063e68bd5" transform="matrix(1.0351014631927422,0,0,1.0351014631927422,-14.021558065868241,-6.229072149599247)" stroke="none" fill="url(#621abe9f-695a-4447-9a7a-e543e159fb5e)"><path d="M80.636 16.676H57.538V6.526H42.463v10.15H19.364v42.547h-5.631v13.61h10.994l-4.771 20.641h15.202l4.771-20.641h2.533v16.488h15.075V72.833h2.533l4.771 20.641h15.202l-4.771-20.641h10.994v-13.61h-5.631V16.676zm-33.321-5.299h5.37v5.299h-5.37v-5.299zM24.458 21.77h51.084v37.453H24.458V21.77zM31.3 88.623h-5.242l3.65-15.789h5.242L31.3 88.623zm21.385-4.153h-5.37V72.833h5.37V84.47zM68.7 88.623l-3.65-15.789h5.242l3.65 15.789H68.7zm12.714-24.548v3.907H18.586v-3.907h62.828z"></path><path d="M63.806 39.03l.006-.106c.005-.068.009-.138.009-.208l-.03-.55h-3.285v.55c0 .071.004.143.009.213l.006.062a6.499 6.499 0 0 1-6.504 6.245h-.55v3.915h.55a6.5 6.5 0 0 1 6.503 6.22l-.005.087c-.005.07-.009.142-.009.213l.03.55h3.285v-.55c0-.07-.004-.14-.009-.208l-.006-.066a6.499 6.499 0 0 1 6.504-6.245h.55v-3.915h-.55c-3.5-.002-6.357-2.745-6.504-6.207zm-1.642 11.194a9.914 9.914 0 0 0-3.235-3.031 9.925 9.925 0 0 0 3.235-3.031 9.927 9.927 0 0 0 3.236 3.031 9.907 9.907 0 0 0-3.236 3.031zM39.397 24.086l.006-.104c.005-.07.009-.142.009-.213l-.03-.55h-3.285v.55c0 .07.004.14.009.208l.006.066a6.499 6.499 0 0 1-6.504 6.245h-.55v3.915h.55a6.498 6.498 0 0 1 6.503 6.22l-.005.092a2.844 2.844 0 0 0-.009.208l.03.55h3.285v-.55c0-.071-.004-.143-.009-.213l-.006-.062a6.499 6.499 0 0 1 6.504-6.245h.55v-3.915h-.55c-3.5.001-6.357-2.742-6.504-6.202zm-1.642 11.192a9.93 9.93 0 0 0-3.236-3.032 9.917 9.917 0 0 0 3.236-3.031 9.907 9.907 0 0 0 3.236 3.031 9.93 9.93 0 0 0-3.236 3.032z"></path></g><!----></svg>